PathFileType	4	(X/Y/Z)	6_coords_data.trc
DataRate	CameraRate	NumFrames	NumMarkers	Units	OrigDataRate	OrigDataStartFrame	OrigNumFrames
30.0	30.0	9	21	m	30.0	1	60
Frame#	Time	THUMB_TIP	THUMB_IP	THUMB_MCP	THUMB_CMC	INDEX_TIP	INDEX_DIP	INDEX_PIP	INDEX_MCP	MIDDLE_TIP	MIDDLE_DIP	MIDDLE_PIP	MIDDLE_MCP	RING_TIP	RING_DIP	RING_PIP	RING_MCP	PINKY_TIP	PINKY_DIP	PINKY_PIP	PINKY_MCP	WRIST
X1	Y1	Z1	X2	Y2	Z2	X3	Y3	Z3	X4	Y4	Z4	X5	Y5	Z5	X6	Y6	Z6	X7	Y7	Z7	X8	Y8	Z8	X9	Y9	Z9	X10	Y10	Z10	X11	Y11	Z11	X12	Y12	Z12	X13	Y13	Z13	X14	Y14	Z14	X15	Y15	Z15	X16	Y16	Z16	X17	Y17	Z17	X18	Y18	Z18	X19	Y19	Z19	X20	Y20	Z20	X21	Y21	Z21
0	0.0	0.003302979946136474	-0.09887110137939453	1.0495	-0.01970639991760254	-0.1004229965209961	1.05125	-0.036569099426269534	-0.07813020324707032	1.0535799560546875	-0.017503400802612305	-0.04706480026245117	1.0614200439453125	-0.006110420227050781	-0.12778500366210938	0.952635009765625	-0.010043000221252442	-0.1099800033569336	0.9660380249023437	-0.01350979995727539	-0.09095850372314453	0.9807490234375	-0.015942399978637695	-0.055090198516845705	1.0040499877929687	-0.015378700256347657	-0.07377330017089843	1.06193994140625	-0.005714640140533447	-0.08735440063476563	1.04527001953125	0.002818269968032837	-0.09123069763183594	1.0226500244140626	0.009369379997253418	-0.05159159851074219	1.00375	-0.00314805006980896	-0.08131379699707031	1.0746700439453125	0.007426000118255615	-0.08653919982910156	1.0579100341796874	0.022085399627685548	-0.09065239715576172	1.03318994140625	0.029988199234008788	-0.05137030029296875	1.018030029296875	0.06745909881591797	-0.10945400238037109	1.0053300170898438	0.05719810104370117	-0.09453970336914062	1.0172899780273437	0.0487052001953125	-0.08012370300292969	1.0270400390625	0.037612499237060545	-0.05434349822998047	1.0401300048828126	-0.010152299880981446	-0.009475079536437989	1.085949951171875
1	0.03333333333333333	0.004175270080566406	-0.09895449829101563	1.05075	-0.02052779960632324	-0.1004029998779297	1.0519599609375	-0.03528110122680664	-0.07793109893798827	1.0541099853515625	-0.02197209930419922	-0.04833750152587891	1.0635400390625	-0.006862500190734863	-0.12805499267578124	0.9546240234375	-0.010600199699401855	-0.10997000122070312	0.9671890258789062	-0.014192299842834473	-0.0914604034423828	0.9827659912109376	-0.015175700187683105	-0.056767799377441405	1.0045999755859376	-0.014697500228881836	-0.0747593002319336	1.0576800537109374	-0.006694079875946045	-0.08553109741210937	1.045699951171875	0.0043692498207092275	-0.09137079620361328	1.0223200073242187	0.009625679969787597	-0.05166270065307617	1.00347998046875	-0.002796989917755127	-0.07320040130615234	1.069469970703125	0.00603754997253418	-0.08465940093994141	1.0553399658203124	0.02160770034790039	-0.09029560089111328	1.033260009765625	0.030032800674438476	-0.051477100372314455	1.0178699951171875	0.06627770233154297	-0.11009100341796875	1.0047100219726564	0.05706700134277344	-0.09489189910888672	1.016739990234375	0.0481974983215332	-0.08040699768066406	1.026199951171875	0.03644049835205078	-0.05541970062255859	1.0400799560546874	-0.009635860443115235	-0.01308180046081543	1.0834000244140625
2	0.06666666666666667	0.004339799880981445	-0.09881990051269532	1.05077001953125	-0.020472000122070313	-0.10039600372314453	1.052	-0.03515060043334961	-0.07801439666748047	1.0540699462890626	-0.02205579948425293	-0.04826050186157226	1.0637900390625	-0.006944680213928222	-0.12829400634765625	0.9549130249023438	-0.010696700096130371	-0.11016899871826172	0.9673920288085938	-0.014291299819946288	-0.09150569915771484	0.9828590087890625	-0.01522379970550537	-0.05677840042114258	1.004489990234375	-0.01452620029449463	-0.07465280151367187	1.0575400390625	-0.00654764986038208	-0.08531549835205078	1.0465799560546876	0.004385839939117431	-0.09142890167236328	1.0221400146484374	0.009545370101928711	-0.051634998321533204	1.00347998046875	-0.002560849905014038	-0.07344000244140625	1.06927001953125	0.006080239772796631	-0.08450260162353515	1.0554599609375	0.02134709930419922	-0.09029630279541015	1.0335699462890624	0.02994289970397949	-0.05138970184326172	1.0177999877929687	0.06614600372314453	-0.11001599884033203	1.004489990234375	0.05696310043334961	-0.09486910247802735	1.016510009765625	0.04819409942626953	-0.08035250091552734	1.0260999755859375	0.03639939880371094	-0.055284698486328124	1.0400400390625	-0.009682060241699219	-0.013011099815368653	1.08343994140625
3	0.1	0.004122010231018066	-0.0989634017944336	1.0501700439453125	-0.020589899063110352	-0.10048300170898437	1.051739990234375	-0.03534540176391601	-0.07790460205078124	1.05402001953125	-0.02212879943847656	-0.048206001281738284	1.06368994140625	-0.007445169925689697	-0.12834300231933593	0.9550280151367188	-0.011053500175476074	-0.11010600280761719	0.9673590087890624	-0.014578300476074219	-0.09147229766845703	0.9828150024414063	-0.015246800422668457	-0.05672560119628906	1.0043400268554687	-0.014684800148010255	-0.07465049743652344	1.0574100341796875	-0.006779069900512695	-0.08515920257568359	1.0455799560546875	0.0042552599906921385	-0.0913947982788086	1.0219099731445314	0.009342160224914551	-0.051562698364257815	1.00327001953125	-0.002809930086135864	-0.07229730224609375	1.0708199462890624	0.005924280166625977	-0.08455590057373047	1.0550400390625	0.02123030090332031	-0.0901719970703125	1.03306005859375	0.029837900161743165	-0.051313800811767576	1.01752001953125	0.06591510009765625	-0.11000299835205078	1.0042000122070311	0.05675669860839844	-0.09483489990234376	1.016280029296875	0.04800550079345703	-0.08020349884033204	1.025989990234375	0.036312698364257816	-0.055388099670410154	1.039530029296875	-0.009655619621276855	-0.0131294002532959	1.0833499755859375
4	0.13333333333333333	0.004168729782104492	-0.09898349761962891	1.0501800537109376	-0.02046240043640137	-0.10051100158691406	1.0518299560546875	-0.03514339828491211	-0.07796029663085938	1.0541700439453126	-0.02203860092163086	-0.04837179946899414	1.0635	-0.007765260219573975	-0.12868699645996093	0.9553809814453125	-0.011331000328063966	-0.110447998046875	0.9676799926757812	-0.01476099967956543	-0.0915873031616211	0.9829669799804688	-0.015209699630737305	-0.05673350143432617	1.0042100219726562	-0.014615699768066407	-0.07475540161132813	1.0570699462890625	-0.006671629905700684	-0.08538059997558593	1.045489990234375	0.004197159767150879	-0.09140339660644531	1.0218499755859376	0.0092158203125	-0.05154040145874023	1.0033099975585937	-0.002293390035629272	-0.07256680297851563	1.069260009765625	0.005634270191192627	-0.08467710113525391	1.0546700439453125	0.021257499694824218	-0.09038839721679688	1.0330999755859376	0.02973900032043457	-0.051368099212646484	1.0175700073242187	0.06590979766845703	-0.11001499938964844	1.0041500244140624	0.056722198486328125	-0.09482039642333985	1.016239990234375	0.04798189926147461	-0.0802260971069336	1.025949951171875	0.03629180145263672	-0.05541019821166992	1.0395699462890624	-0.009711919784545898	-0.013122300148010253	1.08331005859375
5	0.16666666666666666	0.004280039787292481	-0.09886979675292969	1.05047998046875	-0.020390899658203124	-0.10053199768066406	1.0518800048828125	-0.035084300994873044	-0.07799199676513671	1.0543199462890624	-0.02209819984436035	-0.04829130172729492	1.0636500244140625	-0.007905499935150146	-0.12903599548339845	0.9558159790039062	-0.011405200004577636	-0.11076899719238281	0.9679039916992187	-0.014824999809265136	-0.09177760314941406	0.98306298828125	-0.015348799705505371	-0.056751800537109376	1.0042100219726562	-0.01448490047454834	-0.0745708999633789	1.05706005859375	-0.006560319900512695	-0.08550389862060546	1.0452900390625	0.004099959850311279	-0.0915479965209961	1.0218499755859376	0.009284460067749023	-0.051633499145507813	1.0033200073242188	-0.0026781599521636962	-0.07286479949951172	1.06922998046875	0.005809299945831299	-0.08458779907226563	1.0549599609375	0.021458499908447264	-0.09045110321044922	1.032780029296875	0.02981170082092285	-0.051272300720214846	1.0176799926757814	0.06600659942626953	-0.110072998046875	1.004260009765625	0.05680950164794922	-0.0948949966430664	1.01627001953125	0.04803079986572266	-0.08039089965820312	1.026	0.03632550048828125	-0.055494800567626956	1.0394100341796875	-0.00963465976715088	-0.013175700187683105	1.083199951171875
6	0.2	0.004409910202026367	-0.09874870300292969	1.050719970703125	-0.020288000106811522	-0.10052999877929687	1.051949951171875	-0.034956298828125	-0.07797889709472657	1.0543800048828125	-0.022143400192260743	-0.048396499633789065	1.0634100341796875	-0.007957580089569092	-0.12942300415039062	0.9564089965820313	-0.01144099998474121	-0.11104399871826172	0.9683099975585937	-0.014826299667358399	-0.09199669647216797	0.9833839721679688	-0.015316100120544433	-0.056847900390625	1.0044000244140625	-0.014461299896240235	-0.07489029693603516	1.05675	-0.0064915199279785155	-0.0854447021484375	1.0455799560546875	0.004147739887237549	-0.09159929656982421	1.022	0.009338470458984375	-0.051676799774169925	1.0034000244140624	-0.002123840093612671	-0.07236679840087891	1.06975	0.006219860076904297	-0.08465249633789063	1.0551400146484375	0.021579399108886718	-0.09040889739990235	1.03277001953125	0.029855300903320312	-0.051339500427246096	1.0177000122070312	0.06599909973144531	-0.11011399841308593	1.0043599853515626	0.05682590103149414	-0.09494419860839844	1.01627001953125	0.048070899963378905	-0.08032330322265625	1.0260400390625	0.0363931999206543	-0.0555531005859375	1.039510009765625	-0.009551420211791992	-0.01310200023651123	1.0831400146484376
7	0.23333333333333334	0.004575220108032227	-0.09868810272216796	1.0503199462890624	-0.019909599304199218	-0.10050800323486328	1.0520899658203124	-0.03480599975585937	-0.0780552978515625	1.0545699462890625	-0.021749900817871093	-0.04837540054321289	1.0635799560546875	-0.007842679977416993	-0.12983999633789062	0.9571069946289062	-0.011209500312805177	-0.11134300231933594	0.9687249755859375	-0.014557900428771973	-0.09213189697265625	0.9835980224609375	-0.015002099990844727	-0.05672890090942383	1.0042899780273438	-0.014255599975585937	-0.07442500305175781	1.0584200439453124	-0.006168039798736572	-0.08533029937744141	1.045550048828125	0.004583920001983642	-0.09138629913330078	1.0221300048828126	0.009591389656066894	-0.051607200622558594	1.003489990234375	-0.001976079940795898	-0.07288179779052735	1.0694200439453125	0.006599689960479736	-0.08446810150146485	1.0553800048828126	0.021830699920654298	-0.09030740356445313	1.0328900146484374	0.030110599517822266	-0.051209300994873044	1.0176599731445313	0.06617569732666016	-0.10994000244140625	1.0043499755859375	0.05702780151367187	-0.09476979827880859	1.0163400268554688	0.04827870178222656	-0.08021700286865234	1.026010009765625	0.036554698944091794	-0.055121700286865236	1.03997998046875	-0.009352060317993164	-0.01319219970703125	1.083260009765625
8	0.26666666666666666	0.004791540145874023	-0.09863990020751953	1.0508499755859375	-0.019764400482177733	-0.1005989990234375	1.05225	-0.03439419937133789	-0.07783699798583985	1.054780029296875	-0.021751100540161133	-0.048425800323486326	1.0636800537109374	-0.007834219932556152	-0.13019000244140624	0.9576630249023438	-0.011197199821472168	-0.111625	0.9691749877929687	-0.014494000434875488	-0.09233409881591798	0.9839320068359375	-0.0149975004196167	-0.05688830184936523	1.0046099853515624	-0.014418999671936035	-0.07505590057373047	1.05856005859375	-0.00614769983291626	-0.08531729888916016	1.0456099853515626	0.0046819400787353515	-0.09154789733886719	1.0221500244140624	0.009805009841918946	-0.05163010025024414	1.0033699951171875	-0.0022129299640655507	-0.07269589996337891	1.0708499755859375	0.006592440128326416	-0.08413770294189453	1.0556400146484375	0.021899499893188477	-0.09029570007324218	1.033280029296875	0.030293199539184572	-0.05125669860839844	1.0178099975585937	0.06617369842529297	-0.1100780029296875	1.00447998046875	0.05705630111694336	-0.09485199737548829	1.016489990234375	0.048325000762939455	-0.08030660247802734	1.0261700439453125	0.03679869842529297	-0.05516329956054687	1.0400400390625	-0.009235469818115235	-0.013040499687194824	1.0834200439453125
